#N canvas 169 50 544 601 10;
#X obj 192 324 cnv 15 200 60 empty empty empty 20 12 0 14 -196506 -66577
0;
#X obj 187 99 cnv 15 120 60 empty empty empty 20 12 0 14 -196506 -66577
0;
#X obj 201 73 gemhead;
#X obj 197 405 square;
#X msg 269 11 1;
#X msg 300 12 0;
#X obj 198 285 alpha;
#X obj 200 117 pix_video;
#X obj 200 169 pix_texture;
#X msg 247 402 4;
#X obj 269 46 metro 100;
#X msg 294 403 2;
#X obj 274 335 int 0;
#X obj 331 357 + 1;
#X obj 269 73 t b b;
#X obj 326 334 % 360;
#X floatatom 276 366 5 0 0 0 - - -;
#X msg 53 33 create \, 1;
#X msg 71 55 0 \, destroy;
#X msg 9 11 dimen 300 300;
#X obj 52 79 gemwin 10;
#X obj 199 251 colorRGB;
#X floatatom 211 196 5 0 0 0 - - -;
#X floatatom 224 212 5 0 0 0 - - -;
#X floatatom 236 229 5 0 0 0 - - -;
#X text 102 394 geometrical;
#X text 137 404 object;
#X obj 197 345 rotateXYZ;
#X text 296 467 Gem objects;
#X text 295 478 live images from video source;
#X floatatom 269 430 5 0 0 0 - - -;
#X msg 146 13 fullscreen 1;
#X text 189 573 Aalto University;
#X text 187 543 Composing with Pure Data 2010 - Koray Tahiroglu;
#X text 189 559 Media Lab. Department of Media School of Art and Design
;
#X connect 2 0 7 0;
#X connect 4 0 10 0;
#X connect 5 0 10 0;
#X connect 6 0 27 0;
#X connect 7 0 8 0;
#X connect 8 0 21 0;
#X connect 9 0 3 1;
#X connect 10 0 14 0;
#X connect 11 0 3 1;
#X connect 12 0 13 0;
#X connect 12 0 16 0;
#X connect 13 0 15 0;
#X connect 14 0 2 0;
#X connect 14 1 12 0;
#X connect 15 0 12 1;
#X connect 16 0 27 1;
#X connect 17 0 20 0;
#X connect 18 0 20 0;
#X connect 19 0 20 0;
#X connect 21 0 6 0;
#X connect 22 0 21 1;
#X connect 23 0 21 2;
#X connect 24 0 21 3;
#X connect 27 0 3 0;
#X connect 30 0 3 1;
#X connect 31 0 20 0;
