#N canvas 148 50 485 606 10;
#X obj 157 59 cnv 15 280 250 empty empty empty 20 12 0 14 -196506 -66577
0;
#X obj 20 106 gemwin;
#X obj 20 14 tgl 15 0 empty empty empty 0 -6 0 8 -262144 -1 -1 0 1
;
#X msg 38 14 create;
#X msg 38 34 destroy;
#X msg 38 56 dimen 400 400;
#X msg 38 78 color 1 0 0;
#X obj 179 24 gemhead;
#X obj 180 1 tgl 15 0 empty empty empty 0 -6 0 8 -262144 -1 -1 0 1
;
#X obj 6 255 colorRGB 0 0 1 1;
#X floatatom 32 237 3 0 1 0 - - -;
#X floatatom 59 237 3 0 1 0 - - -;
#X floatatom 86 237 3 0 1 0 - - -;
#X obj 6 276 alpha;
#X floatatom 114 236 3 0 1 0 - - -;
#X obj 5 325 translateXYZ;
#X obj 5 454 scaleXYZ;
#X obj 5 395 rotateXYZ 0 0 0;
#X obj 180 179 pix_film;
#X floatatom 231 161 5 0 0 0 - - -;
#X msg 210 130 auto 0;
#X floatatom 31 483 5 0 0 0 - - -;
#X floatatom 82 482 5 0 0 0 - - -;
#X obj 5 504 rectangle 2 2;
#X msg 210 110 auto 1;
#X obj 231 199 bng 15 250 50 0 empty empty empty 0 -6 0 8 -262144 -1
-1;
#X obj 205 216 unpack 0 0 0;
#X floatatom 197 250 5 0 0 3 length - -;
#X floatatom 246 250 5 0 0 3 width - -;
#X floatatom 296 250 5 0 0 3 height - -;
#X text 255 74 loads video file;
#X text 255 85 mov for mac;
#X text 261 113 start/stop;
#X text 260 124 to play the movie;
#X obj 6 207 pix_texture2;
#X floatatom 21 302 5 0 0 0 - - -;
#X floatatom 109 301 5 0 0 0 - - -;
#X floatatom 66 302 5 0 0 0 - - -;
#X floatatom 20 368 5 0 0 0 - - -;
#X floatatom 102 369 5 0 0 0 - - -;
#X floatatom 58 368 5 0 0 0 - - -;
#X floatatom 14 430 5 0 0 0 - - -;
#X floatatom 92 430 5 0 0 0 - - -;
#X floatatom 54 430 5 0 0 0 - - -;
#X text 346 -4 VIDEO FILES;
#X text 272 151 play the movie;
#X text 272 162 controling through;
#X text 271 173 frames;
#X text 281 493 Gem objects;
#X text 282 504 workin with video files;
#X obj 257 49 openpanel;
#X obj 259 31 bng 15 250 50 0 empty empty empty 0 -6 0 8 -262144 -1
-1;
#X msg 195 77 open \$1;
#X text 143 571 Aalto University;
#X text 141 541 Composing with Pure Data 2010 - Koray Tahiroglu;
#X text 143 557 Media Lab. Department of Media School of Art and Design
;
#X connect 2 0 1 0;
#X connect 3 0 1 0;
#X connect 4 0 1 0;
#X connect 5 0 1 0;
#X connect 6 0 1 0;
#X connect 7 0 18 0;
#X connect 8 0 7 0;
#X connect 9 0 13 0;
#X connect 10 0 9 1;
#X connect 11 0 9 2;
#X connect 12 0 9 3;
#X connect 13 0 15 0;
#X connect 14 0 9 4;
#X connect 15 0 17 0;
#X connect 16 0 23 0;
#X connect 17 0 16 0;
#X connect 18 0 34 0;
#X connect 18 1 26 0;
#X connect 18 2 25 0;
#X connect 19 0 18 1;
#X connect 20 0 18 0;
#X connect 21 0 23 1;
#X connect 22 0 23 2;
#X connect 24 0 18 0;
#X connect 26 0 27 0;
#X connect 26 1 28 0;
#X connect 26 2 29 0;
#X connect 34 0 9 0;
#X connect 35 0 15 1;
#X connect 36 0 15 3;
#X connect 37 0 15 2;
#X connect 38 0 17 1;
#X connect 39 0 17 3;
#X connect 40 0 17 2;
#X connect 41 0 16 1;
#X connect 42 0 16 3;
#X connect 43 0 16 2;
#X connect 50 0 52 0;
#X connect 51 0 50 0;
#X connect 52 0 18 0;
