#N canvas 141 22 719 645 10;
#X obj 20 106 gemwin;
#X obj 20 14 tgl 15 0 empty empty empty 0 -6 0 8 -262144 -1 -1 0 1
;
#X msg 38 14 create;
#X msg 38 34 destroy;
#X msg 38 56 dimen 400 400;
#X msg 38 78 color 1 0 0;
#X msg 140 59 dimen 300 400;
#X obj 270 54 cnv 15 250 220 empty empty empty 20 12 0 14 -196506 -66577
0;
#X obj 285 527 cube 1;
#X obj 289 19 gemhead;
#X obj 289 -4 tgl 15 0 empty empty empty 0 -6 0 8 -262144 -1 -1 0 1
;
#X floatatom 314 291 3 0 1 0 - - -;
#X floatatom 341 291 3 0 1 0 - - -;
#X floatatom 368 292 3 0 1 0 - - -;
#X obj 288 330 alpha;
#X floatatom 396 291 3 0 1 0 - - -;
#X obj 289 382 translateXYZ;
#X obj 290 498 scaleXYZ;
#X obj 289 92 pix_image;
#X text 358 99 loads an image;
#X text 297 228 image as a texture;
#X text 358 110 JPG and TIFF;
#X obj 290 440 rotateXYZ 0 0 0;
#X obj 351 138 pix_draw;
#X text 295 241 this supports all sized images;
#X floatatom 313 356 5 0 0 0 - - -;
#X floatatom 353 356 5 0 0 0 - - -;
#X floatatom 393 356 5 0 0 0 - - -;
#X floatatom 308 419 5 0 0 0 - - -;
#X floatatom 353 419 5 0 0 0 - - -;
#X floatatom 395 419 5 0 0 0 - - -;
#X floatatom 305 472 5 0 0 0 - - -;
#X floatatom 345 472 5 0 0 0 - - -;
#X floatatom 385 472 5 0 0 0 - - -;
#X text 347 -2 IMAGE LOADING AND TEXTURE;
#X obj 288 309 colorRGB 0 1 1 1;
#X text 330 154 displays the loaded image;
#X text 488 529 working with images;
#X text 487 518 Gem objects;
#X text 332 165 on the GEM window;
#X text 404 177 no texture;
#X obj 369 63 openpanel;
#X msg 368 82 open \$1;
#X obj 350 62 bng 15 250 50 0 empty empty empty 0 -6 0 8 -262144 -1
-1;
#X msg 113 10 fullscreen 1;
#X msg 124 35 fullscreen 0;
#X text 360 602 Aalto University;
#X text 358 572 Composing with Pure Data 2010 - Koray Tahiroglu;
#X text 360 588 Media Lab. Department of Media School of Art and Design
;
#X obj 288 204 pix_texture;
#X connect 1 0 0 0;
#X connect 2 0 0 0;
#X connect 3 0 0 0;
#X connect 4 0 0 0;
#X connect 5 0 0 0;
#X connect 6 0 0 0;
#X connect 9 0 18 0;
#X connect 10 0 9 0;
#X connect 11 0 35 1;
#X connect 12 0 35 2;
#X connect 13 0 35 3;
#X connect 14 0 16 0;
#X connect 15 0 35 4;
#X connect 16 0 22 0;
#X connect 17 0 8 0;
#X connect 18 0 49 0;
#X connect 22 0 17 0;
#X connect 25 0 16 1;
#X connect 26 0 16 2;
#X connect 27 0 16 3;
#X connect 28 0 22 1;
#X connect 29 0 22 2;
#X connect 30 0 22 3;
#X connect 31 0 17 1;
#X connect 32 0 17 2;
#X connect 33 0 17 3;
#X connect 35 0 14 0;
#X connect 41 0 42 0;
#X connect 42 0 18 0;
#X connect 43 0 41 0;
#X connect 44 0 0 0;
#X connect 45 0 0 0;
#X connect 49 0 35 0;
