#N canvas 95 82 869 419 10;
#X obj 51 230 cnv 15 120 120 empty empty empty 20 12 0 14 -196506 -66577
0;
#X text 351 16 Gem (Graphics Environment for Multimedia);
#X obj 62 269 gemwin;
#X obj 86 43 tgl 15 0 empty empty empty 0 -6 0 8 -262144 -1 -1 0 1
;
#X msg 87 64 create;
#X msg 88 86 destroy;
#X text 103 43 Rendering on: "1" \, off: "0";
#X msg 370 191 offset 100 200;
#X msg 370 214 dimen 100 200;
#X text 474 216 dimen x y : the x and y dimensions of the window;
#X text 478 185 offset x y : the x and y offset of the window (might
not work under certain window-managers when borders are on);
#X text 474 166 border 0/1: create a window with/out borders;
#X text 472 236 fullscreen 0/1: make fullscreen-window (if possible
with the dimensions passed via "dimen");
#X text 515 276 title <title_symbol>: set the title for the window
;
#X msg 371 243 fullscreen 0;
#X msg 372 168 border 1;
#X text 135 65 Open;
#X text 145 86 Close;
#X text 186 108 the x and y dimensions of the window;
#X text 173 126 Window background RGB color;
#X text 603 33 VIDEO MATERIAL;
#X text 605 50 LIVE VIDEO;
#X text 606 68 IMAGES;
#X text 349 31 library that makes you to work with;
#X text 61 288 window manager;
#X text 317 192 1152X768;
#X msg 370 276 title hello_Mediamatic;
#X msg 91 126 color 1 1 0;
#X msg 374 303 frame 20;
#X text 469 301 frame : sets the frame per sec number;
#X text 474 145 cursor 0/1: turns the cursor display on/off;
#X msg 375 144 cursor 1;
#X msg 89 107 dimen 400 400;
#X text 484 393 Aalto University;
#X text 482 363 Composing with Pure Data 2010 - Koray Tahiroglu;
#X text 484 379 Media Lab. Department of Media School of Art and Design
;
#X connect 3 0 2 0;
#X connect 4 0 2 0;
#X connect 5 0 2 0;
#X connect 7 0 2 0;
#X connect 8 0 2 0;
#X connect 14 0 2 0;
#X connect 15 0 2 0;
#X connect 26 0 2 0;
#X connect 27 0 2 0;
#X connect 28 0 2 0;
#X connect 31 0 2 0;
#X connect 32 0 2 0;
