#N canvas 494 47 700 637 10;
#X obj 193 41 cnv 15 200 52 empty empty empty 20 12 0 14 -196506 -66577
0;
#X obj -5 121 cnv 15 390 84 empty empty empty 20 12 0 14 -196506 -66577
0;
#X obj -7 221 cnv 15 450 90 empty empty empty 20 12 0 14 -196506 -66577
0;
#X obj 428 5 cnv 15 220 50 empty empty empty 20 12 0 14 -196506 -66577
0;
#X floatatom 307 288 5 0 0 0 - - -;
#X floatatom 350 288 5 0 0 0 - - -;
#X floatatom 393 289 5 0 0 0 - - -;
#X obj 220 330 pix_texture;
#X obj 353 441 translateXYZ;
#X obj 306 320 * 8;
#X obj 306 342 - 4;
#X obj 351 318 * 8;
#X obj 351 340 - 4;
#X floatatom 315 144 3 0 100 2 threshold - -;
#X obj 315 161 / 100;
#X obj 220 182 alpha;
#X obj 201 148 tgl 15 1 empty empty empty 0 -6 0 8 -262144 -1 -1 0
1;
#X obj 220 71 pix_rgba;
#X msg 430 471 0 0 0;
#X obj 351 482 colour;
#X msg 431 497 1 1 1;
#X text 476 473 black;
#X text 473 499 white;
#X obj 448 28 gemhead 10;
#X obj 454 403 gemhead 15;
#X obj 277 485 loadbang;
#X msg 277 507 draw line;
#X msg 276 532 width \$1;
#X obj 407 345 int;
#X obj 393 321 * 10;
#X obj 408 369 + 1;
#X text 444 11 the rendering-order value.;
#X msg 48 44 0 \, destroy;
#X msg 50 27 create \, 1;
#X obj 17 67 gemwin 15;
#X msg 18 8 dimen 300 300;
#X text 395 270 0-1;
#X text 308 273 X;
#X text 362 272 y;
#X floatatom 307 366 5 0 0 0 - - -;
#X floatatom 364 369 5 0 0 0 - - -;
#X obj 220 147 pix_movement;
#X obj 219 368 square 4;
#X text 214 43 converts the colorspace;
#X text 214 53 of an image to RGBA;
#X text 2 144 It detects movement between;
#X text 3 156 two subsequent frames and;
#X text 1 167 stores it into the;
#X text 2 179 alpha-channel for RGBA-images.;
#X text -1 237 It calculates the;
#X text -7 266 (combination of) channel(s).;
#X text -2 252 center-of-gravity of a certain;
#X obj 448 76 pix_video;
#X text 176 5 A MOMENT DETECTOR - live video;
#X obj 403 8 tgl 15 1 empty empty empty 0 -6 0 8 -262144 -1 -1 1 1
;
#X obj 351 555 square 0.1;
#X msg 250 232 4;
#X obj 219 255 pix_blob 4;
#X text 356 610 Aalto University;
#X text 360 582 Composing with Pure Data 2010 - Koray Tahiroglu;
#X text 358 594 Media Lab. Department of Media School of Art and Design
;
#X connect 4 0 9 0;
#X connect 5 0 11 0;
#X connect 6 0 29 0;
#X connect 7 0 42 0;
#X connect 8 0 19 0;
#X connect 9 0 10 0;
#X connect 10 0 39 0;
#X connect 11 0 12 0;
#X connect 12 0 40 0;
#X connect 13 0 14 0;
#X connect 14 0 41 1;
#X connect 15 0 57 0;
#X connect 16 0 15 1;
#X connect 17 0 41 0;
#X connect 18 0 19 1;
#X connect 19 0 55 0;
#X connect 20 0 19 1;
#X connect 23 0 52 0;
#X connect 24 0 8 0;
#X connect 25 0 26 0;
#X connect 26 0 55 0;
#X connect 27 0 55 0;
#X connect 28 0 30 0;
#X connect 29 0 28 0;
#X connect 29 0 27 0;
#X connect 30 0 55 1;
#X connect 32 0 34 0;
#X connect 33 0 34 0;
#X connect 35 0 34 0;
#X connect 39 0 8 1;
#X connect 40 0 8 2;
#X connect 41 0 15 0;
#X connect 52 0 17 0;
#X connect 54 0 23 0;
#X connect 56 0 57 1;
#X connect 57 0 7 0;
#X connect 57 1 4 0;
#X connect 57 2 5 0;
#X connect 57 3 6 0;
