#N canvas 93 119 1031 549 16;
#X obj 134 477 rectangle;
#X obj 10 156 gemwin;
#X msg 27 80 create \, 1;
#X msg 32 117 0 \, destroy;
#X text 759 274 red;
#X text 805 274 green;
#X text 878 274 blue;
#X text 944 274 alpha;
#X obj 15 -19 tgl 30 0 empty empty empty 0 -6 0 10 -262144 -1 -1 0
1;
#X msg 15 24 \; pd dsp \$1 \;;
#X floatatom 162 441 5 0 0 0 - - -;
#X floatatom 229 449 5 0 0 0 - - -;
#X obj 638 224 dac~;
#X msg 89 338 dimen \$1 \$2;
#X obj 89 305 pack f f;
#X obj 777 50 * 32;
#X floatatom 775 97 5 0 0 0 - - -;
#X floatatom 777 9 5 0 0 0 - - -;
#X obj 792 153 adc~;
#X obj 791 183 *~;
#X obj 863 76 vsl 15 128 0 1 0 0 empty empty empty 0 -8 0 10 -262144
-1 -1 0 1;
#X floatatom 86 269 5 0 0 0 - - -;
#X floatatom 163 226 5 0 0 0 - - -;
#X obj 164 261 t b f;
#X obj 134 410 pix_texture2;
#X obj 394 -15 gemhead;
#X obj 479 -11 block~ 4096;
#X obj 401 45 osc~ 1;
#X obj 400 108 *~ 0.5;
#X obj 400 78 +~ 1;
#X obj 478 45 noise~;
#X floatatom 573 44 5 0 0 0 - - -;
#X obj 526 83 tgl 15 0 empty empty empty 0 -6 0 8 -24198 -1 -1 0 1
;
#X obj 477 82 *~ 0;
#X obj 572 104 phasor~ 700;
#X floatatom 401 16 5 0 0 0 - - -;
#X msg 233 105 dimen 512 4;
#X obj 393 154 pix_sig2pix~ 64 64;
#X obj 389 298 rectangle 4 2;
#X msg 518 260 quality 1;
#X obj 390 260 pix_texture2;
#X text 444 461 Aalto University;
#X text 442 431 Composing with Pure Data 2010 - Koray Tahiroglu;
#X text 444 447 Media Lab. Department of Media School of Art and Design
;
#X connect 2 0 1 0;
#X connect 3 0 1 0;
#X connect 8 0 9 0;
#X connect 10 0 0 1;
#X connect 11 0 0 2;
#X connect 13 0 37 0;
#X connect 14 0 13 0;
#X connect 15 0 16 0;
#X connect 17 0 15 0;
#X connect 18 0 19 0;
#X connect 18 1 19 0;
#X connect 20 0 19 1;
#X connect 21 0 14 0;
#X connect 22 0 23 0;
#X connect 23 0 14 0;
#X connect 23 1 14 1;
#X connect 24 0 0 0;
#X connect 25 0 37 0;
#X connect 27 0 29 0;
#X connect 28 0 12 1;
#X connect 28 0 12 0;
#X connect 28 0 37 0;
#X connect 29 0 28 0;
#X connect 30 0 33 0;
#X connect 31 0 34 0;
#X connect 32 0 33 1;
#X connect 33 0 12 0;
#X connect 33 0 12 1;
#X connect 33 0 37 1;
#X connect 34 0 37 2;
#X connect 34 0 37 3;
#X connect 35 0 27 0;
#X connect 36 0 37 0;
#X connect 37 0 40 0;
#X connect 39 0 40 0;
#X connect 40 0 38 0;
