#N canvas 378 231 832 603 10;
#X obj 35 55 adc~;
#X obj 306 476 dac~;
#X obj 36 421 delwrite~ delay1 1000;
#X obj 51 305 *~;
#X floatatom 50 144 5 0 2000 1 delaytime - -;
#X obj 36 335 +~;
#X obj 64 282 vline~;
#X msg 64 257 \$1 20;
#X obj 64 208 vsl 20 40 0 1 0 0 empty empty empty 0 -9 0 10 -262144
-1 -1 0 1;
#X obj 51 168 delread~ delay1 1000;
#X obj 321 403 vline~;
#X msg 321 378 \$1 20;
#X obj 321 328 vsl 20 40 0 1 0 0 empty empty empty 0 -9 0 10 -262144
-1 -1 0 1;
#X obj 306 449 *~;
#X msg 333 548 \; pd dsp \$1 \;;
#X obj 333 526 tgl 15 0 empty empty empty 17 7 0 10 -262144 -1 -1 0
1;
#X text 93 223 feedback;
#X text 345 355 main volume;
#X obj 411 480 cnv 15 400 100 empty empty empty 20 12 0 14 -175625
-66577 0;
#X text 448 524 Media Lab \, Department of Media;
#X text 447 510 Sound and Music Computing - AAU-CPH Credits: SOPI Research
Group;
#X text 46 114 This delay effect - no pitch change;
#X obj 452 329 +~;
#X obj 467 301 *~;
#X floatatom 465 94 5 0 2000 1 delaytime - -;
#X obj 467 160 vd~ delay2;
#X obj 453 422 delwrite~ delay2 2000;
#X obj 480 330 spigot~;
#X obj 519 311 tgl 15 0 empty empty empty 17 7 0 10 -262144 -1 -1 0
1;
#X text 542 312 Delay on/off;
#X obj 483 279 vline~;
#X msg 483 254 \$1 20;
#X obj 483 205 vsl 20 40 0 1 0 0 empty empty empty 0 -9 0 10 -262144
-1 -1 0 1;
#X text 512 220 feedback;
#X text 464 59 This delay effect - with pitch change;
#X obj 68 334 spigot~;
#X obj 107 314 tgl 15 0 empty empty empty 17 7 0 10 -262144 -1 -1 0
1;
#X text 130 315 Delay on/off;
#X obj 35 3 cnv 15 200 20 empty empty empty 20 12 0 14 -33173 -262144
0;
#X text 54 5 DELAY;
#X text 74 55 Analog to digital converter (audio input);
#X obj 611 117 sig~;
#X floatatom 609 87 5 0 0 0 - - -;
#X msg 465 114 \$1 50;
#X obj 466 136 vline~;
#X text 449 539 Aalto University School of Arts \, Design and Architecture
;
#X connect 0 0 5 0;
#X connect 0 0 22 0;
#X connect 3 0 5 1;
#X connect 3 0 35 0;
#X connect 4 0 9 0;
#X connect 5 0 2 0;
#X connect 6 0 3 1;
#X connect 7 0 6 0;
#X connect 8 0 7 0;
#X connect 9 0 3 0;
#X connect 10 0 13 1;
#X connect 11 0 10 0;
#X connect 12 0 11 0;
#X connect 13 0 1 0;
#X connect 13 0 1 1;
#X connect 15 0 14 0;
#X connect 22 0 26 0;
#X connect 23 0 22 1;
#X connect 23 0 27 0;
#X connect 24 0 43 0;
#X connect 25 0 23 0;
#X connect 27 1 13 0;
#X connect 28 0 27 1;
#X connect 30 0 23 1;
#X connect 31 0 30 0;
#X connect 32 0 31 0;
#X connect 35 1 13 0;
#X connect 36 0 35 1;
#X connect 42 0 41 0;
#X connect 43 0 44 0;
#X connect 44 0 25 0;
