#N canvas 753 276 1166 627 10;
#X msg 442 517 \; pd dsp \$1 \;;
#X obj 442 495 tgl 15 0 empty empty empty 17 7 0 10 -262144 -1 -1 0
1;
#X text 338 161 number of pitch outlets (1-3 \, default 1);
#X text 338 183 number of peaks to find (1-100 \, default 20);
#X text 338 205 number of peaks to output (default 0.);
#X text 214 171 ------ arguments:;
#X text 338 139 window size (128-2048 \, default 1024);
#X obj 90 103 adc~;
#X obj 130 266 bng 15 250 50 0 empty empty empty 17 7 0 10 -262144
-1 -1;
#X text 128 280 attack;
#X obj 185 269 unpack;
#X floatatom 185 344 0 0 0 0 - - -;
#X floatatom 238 304 0 0 0 0 - - -;
#X text 185 361 raw pitch;
#X text 236 320 raw amplitude;
#X floatatom 26 264 0 0 0 0 - - -;
#X text 22 280 cooked pitch;
#X floatatom 337 297 0 0 0 0 - - -;
#X text 335 312 amplitude dB;
#X obj 690 340 bonk~;
#X obj 30 16 cnv 15 200 20 empty empty empty 20 12 0 14 -33173 -262144
0;
#X text 49 18 FIDDLE;
#X obj 689 9 cnv 15 200 20 empty empty empty 20 12 0 14 -33173 -262144
0;
#X text 708 11 BONK;
#X text 31 45 Pitch detection;
#X obj 692 97 adc~;
#X obj 717 366 unpack f f f;
#X floatatom 717 400 5 0 0 0 - - -;
#X msg 825 96 debounce 0;
#X floatatom 759 401 5 0 0 0 - - -;
#X floatatom 800 402 5 0 0 0 - - -;
#X msg 863 298 forget;
#X msg 905 96 minvel 40;
#X msg 733 97 thresh 6 50;
#X msg 864 178 learn 10;
#X text 922 184 The number is the amount of;
#X text 923 196 times you will hit each instrument;
#X msg 864 250 learn 0;
#X text 921 250 exit learn mode;
#X text 915 297 forget the instruments;
#X text 976 90 various settings;
#X text 975 104 see the help file for details;
#X obj 717 438 sel 0 1 2;
#X obj 717 462 bng 15 250 50 0 empty empty empty 17 7 0 10 -262144
-1 -1;
#X obj 751 504 bng 15 250 50 0 empty empty empty 17 7 0 10 -262144
-1 -1;
#X obj 734 482 bng 15 250 50 0 empty empty empty 17 7 0 10 -262144
-1 -1;
#X text 780 441 selects the instrumet;
#X text 639 400 instrument #;
#X text 687 37 Attack detection for multiple instruments.;
#X obj 32 493 cnv 15 400 100 empty empty empty 20 12 0 14 -33173 -262144
0;
#X text 69 537 Media Lab \, Department of Media;
#X text 68 523 Sound and Music Computing - AAU-CPH Credits: SOPI Research
Group;
#X text 922 167 Teach bonk the instruments.;
#X obj 91 170 fiddle~ 1024 1 100 0;
#X text 70 552 Aalto University School of Arts \, Design and Architecture
;
#X connect 1 0 0 0;
#X connect 7 0 53 0;
#X connect 10 0 11 0;
#X connect 10 1 12 0;
#X connect 19 1 26 0;
#X connect 25 0 19 0;
#X connect 26 0 27 0;
#X connect 26 1 29 0;
#X connect 26 2 30 0;
#X connect 27 0 42 0;
#X connect 28 0 19 0;
#X connect 31 0 19 0;
#X connect 32 0 19 0;
#X connect 33 0 19 0;
#X connect 34 0 19 0;
#X connect 37 0 19 0;
#X connect 42 0 43 0;
#X connect 42 1 45 0;
#X connect 42 2 44 0;
#X connect 53 0 15 0;
#X connect 53 1 8 0;
#X connect 53 2 10 0;
#X connect 53 3 17 0;
