#N canvas 61 22 666 742 10;
#X obj 81 97 adc~;
#X obj 81 137 fiddle~;
#X floatatom 81 163 5 0 0 1 Frequency - -;
#X obj 81 190 i;
#X obj 81 212 change;
#X obj 81 376 mtof;
#X obj 33 14 cnv 15 600 30 empty empty Basic_Pitch_Follower 20 12 0
14 -33173 -262144 0;
#X msg 81 418 0.2 600;
#X obj 81 438 line~;
#X obj 145 419 osc~;
#X obj 81 469 *~;
#X obj 81 491 rev2~ 100 90 3000 20;
#X obj 423 585 dac~;
#X obj 61 535 throw~ \$0-left;
#X obj 423 541 catch~ \$0-left;
#X obj 444 561 catch~ \$0-right;
#X obj 154 535 throw~ \$0-right;
#X obj 403 122 cnv 15 200 20 empty empty empty 20 12 0 14 -33173 -262144
0;
#X obj 381 204 + 2;
#X floatatom 381 226 5 0 0 0 - - -;
#X floatatom 436 227 5 0 0 0 - - -;
#X floatatom 492 226 5 0 0 0 - - -;
#X obj 436 205 + 4;
#X obj 492 204 + 5;
#X obj 381 247 pipe 300;
#X obj 436 247 pipe 500;
#X obj 492 247 pipe 700;
#X obj 436 289 mtof;
#X msg 436 332 0.2 600;
#X obj 436 352 line~;
#X obj 495 332 osc~;
#X obj 436 385 *~;
#X obj 436 408 rev2~ 100 90 3000 20;
#X obj 416 452 throw~ \$0-left;
#X obj 509 452 throw~ \$0-right;
#X obj 436 309 t b f;
#X obj 81 397 t b f;
#X obj 114 265 s \$0-freq;
#X obj 436 163 r \$0-freq;
#X text 546 207 Plays notes of;
#X text 546 220 major scale;
#X text 422 124 Additional Notes for scale;
#X obj 36 65 cnv 15 200 20 empty empty empty 20 12 0 14 -33173 -262144
0;
#X obj 114 242 spigot;
#X obj 147 219 tgl 15 0 empty empty turn_scale_on/off 17 7 0 10 -262144
-1 -1 0 1;
#X text 106 189 makes Freq and int value;
#X obj 103 288 t b;
#X text 55 67 Single pitch Follower;
#X text 175 336 Stops multiple notes;
#X obj 41 419 r cut;
#X msg 103 332 \; cut 0 5 \;;
#X obj 395 330 r cut;
#X obj 403 513 cnv 15 200 20 empty empty empty 20 12 0 14 -33173 -262144
0;
#X text 422 515 Output;
#X obj 103 310 delay 1500;
#X text 181 350 if input pitch has;
#X text 186 364 not changed in 1500 ms;
#X msg 158 647 \; pd dsp \$1 \;;
#X obj 158 625 tgl 15 0 empty empty empty 17 7 0 10 -262144 -1 -1 0
1;
#X connect 0 0 1 0;
#X connect 0 1 1 0;
#X connect 1 0 2 0;
#X connect 2 0 3 0;
#X connect 3 0 4 0;
#X connect 4 0 5 0;
#X connect 4 0 43 0;
#X connect 4 0 46 0;
#X connect 5 0 36 0;
#X connect 7 0 8 0;
#X connect 8 0 10 0;
#X connect 9 0 10 1;
#X connect 10 0 11 0;
#X connect 11 0 13 0;
#X connect 11 0 16 0;
#X connect 11 1 13 0;
#X connect 11 1 16 0;
#X connect 11 2 13 0;
#X connect 11 2 16 0;
#X connect 11 3 13 0;
#X connect 11 3 16 0;
#X connect 14 0 12 0;
#X connect 15 0 12 1;
#X connect 18 0 19 0;
#X connect 19 0 24 0;
#X connect 20 0 25 0;
#X connect 21 0 26 0;
#X connect 22 0 20 0;
#X connect 23 0 21 0;
#X connect 24 0 27 0;
#X connect 25 0 27 0;
#X connect 26 0 27 0;
#X connect 27 0 35 0;
#X connect 28 0 29 0;
#X connect 29 0 31 0;
#X connect 30 0 31 1;
#X connect 31 0 32 0;
#X connect 32 0 33 0;
#X connect 32 0 34 0;
#X connect 32 1 33 0;
#X connect 32 1 34 0;
#X connect 32 2 33 0;
#X connect 32 2 34 0;
#X connect 32 3 33 0;
#X connect 32 3 34 0;
#X connect 35 0 28 0;
#X connect 35 1 30 0;
#X connect 36 0 7 0;
#X connect 36 1 9 0;
#X connect 38 0 18 0;
#X connect 38 0 22 0;
#X connect 38 0 23 0;
#X connect 43 0 37 0;
#X connect 44 0 43 1;
#X connect 46 0 54 0;
#X connect 49 0 8 0;
#X connect 51 0 29 0;
#X connect 54 0 50 0;
#X connect 58 0 57 0;
