#N canvas 900 147 896 794 10;
#X obj 31 237 gemwin;
#X msg 99 166 dimen 320 240;
#X text 100 107 Create and start rendering;
#X text 145 129 Stop rendring and destroy window;
#X text 187 161 Set the size of the window;
#X text 188 175 Has to be clicked before create;
#X obj 20 17 cnv 15 200 20 empty empty empty 20 12 0 14 -33173 -262144
0;
#X text 38 19 GEM WINDOW;
#X obj 441 14 cnv 15 200 20 empty empty empty 20 12 0 14 -33173 -262144
0;
#X text 461 16 GEMHEAD (render chain);
#X obj 443 84 gemhead;
#X obj 443 64 tgl 15 0 empty empty empty 17 7 0 10 -262144 -1 -1 0
1;
#X text 493 84 All things that you want to render start with this;
#X obj 444 291 pix_film;
#X obj 441 38 cnv 15 200 20 empty empty empty 20 12 0 14 -33173 -262144
0;
#X text 461 40 PIX_FILM (play video);
#X obj 467 116 bng 15 250 50 0 empty empty empty 17 7 0 10 -262144
-1 -1;
#X obj 467 135 openpanel;
#X msg 467 158 open \$1;
#X obj 465 328 unpack f f f;
#X floatatom 458 365 5 0 0 0 - - -;
#X floatatom 507 363 5 0 0 0 - - -;
#X floatatom 567 364 5 0 0 0 - - -;
#X msg 526 228 auto \$1;
#X obj 526 208 tgl 15 0 empty empty empty 17 7 0 10 -262144 -1 -1 0
1;
#X text 532 143 Use the openpanel...;
#X text 629 183 ... or just define the name;
#X text 584 228 autoplay;
#X floatatom 678 230 5 0 0 0 - - -;
#X text 717 230 go to a specific frame;
#X msg 126 197 color 0.2 0.2 0.2 1;
#X obj 442 738 rectangle 6 4;
#X floatatom 479 716 5 0 0 0 - - -;
#X floatatom 517 715 5 0 0 0 - - -;
#X text 475 697 width;
#X text 518 695 height;
#X msg 71 131 0 \, destroy;
#X msg 30 107 create \, 1;
#X msg 523 181 open volcano.mov;
#X floatatom 466 433 3 0 1 0 - - -;
#X floatatom 493 433 3 0 1 0 - - -;
#X floatatom 520 433 3 0 1 0 - - -;
#X obj 441 489 alpha;
#X floatatom 548 432 3 0 1 0 - - -;
#X obj 440 546 translateXYZ;
#X obj 440 667 scaleXYZ;
#X obj 440 608 rotateXYZ 0 0 0;
#X floatatom 456 523 5 0 0 0 - - -;
#X floatatom 544 522 5 0 0 0 - - -;
#X floatatom 501 523 5 0 0 0 - - -;
#X floatatom 455 581 5 0 0 0 - - -;
#X floatatom 537 582 5 0 0 0 - - -;
#X floatatom 493 581 5 0 0 0 - - -;
#X floatatom 449 643 5 0 0 0 - - -;
#X floatatom 527 643 5 0 0 0 - - -;
#X floatatom 489 643 5 0 0 0 - - -;
#X text 548 459 colorize;
#X text 479 487 enable alpha blending;
#X text 450 382 length;
#X text 507 380 width;
#X text 566 381 height;
#X obj 440 458 colorRGB 1 1 1 1;
#X text 591 545 move;
#X text 587 602 rotate;
#X text 585 660 scale;
#X obj 17 661 cnv 15 400 100 empty empty empty 20 12 0 14 -33173 -262144
0;
#X text 54 705 Media Lab \, Department of Media;
#X text 53 691 Sound and Music Computing - AAU-CPH Credits: SOPI Research
Group;
#X text 80 239 All gemheads render in one window;
#X obj 440 407 pix_texture;
#X text 55 720 Aalto University School of Arts \, Design and Architecture
;
#X connect 1 0 0 0;
#X connect 10 0 13 0;
#X connect 11 0 10 0;
#X connect 13 0 69 0;
#X connect 13 1 19 0;
#X connect 16 0 17 0;
#X connect 17 0 18 0;
#X connect 18 0 13 0;
#X connect 19 0 20 0;
#X connect 19 1 21 0;
#X connect 19 2 22 0;
#X connect 23 0 13 0;
#X connect 24 0 23 0;
#X connect 28 0 13 1;
#X connect 30 0 0 0;
#X connect 32 0 31 1;
#X connect 33 0 31 2;
#X connect 36 0 0 0;
#X connect 37 0 0 0;
#X connect 38 0 13 0;
#X connect 39 0 61 1;
#X connect 40 0 61 2;
#X connect 41 0 61 3;
#X connect 42 0 44 0;
#X connect 43 0 61 4;
#X connect 44 0 46 0;
#X connect 45 0 31 0;
#X connect 46 0 45 0;
#X connect 47 0 44 1;
#X connect 48 0 44 3;
#X connect 49 0 44 2;
#X connect 50 0 46 1;
#X connect 51 0 46 3;
#X connect 52 0 46 2;
#X connect 53 0 45 1;
#X connect 54 0 45 3;
#X connect 55 0 45 2;
#X connect 61 0 42 0;
#X connect 69 0 61 0;
